<svg xmlns="http://www.w3.org/2000/svg" fill="currentColor" viewBox="0 0 24 24">
  <path d="M12 0.297c-6.63 0-12 5.373-12 12 0 5.303 
    3.438 9.8 8.205 11.387 0.6 0.113 0.82-0.258 
    0.82-0.577 0-0.285-0.01-1.04-0.015-2.04-3.338 
    0.724-4.042-1.61-4.042-1.61-0.546-1.387-1.333-1.757-1.333-1.757-1.09-0.745 
    0.084-0.729 0.084-0.729 1.205 0.084 1.84 1.236 
    1.84 1.236 1.07 1.835 2.809 1.304 3.495 0.997 
    0.108-0.776 0.418-1.305 0.76-1.605-2.665-0.3-5.466-1.334-5.466-5.93 
    0-1.31 0.47-2.38 1.236-3.22-0.123-0.303-0.535-1.523 
    0.117-3.176 0 0 1.008-0.322 3.3 1.23 0.96-0.267 
    1.98-0.399 3-0.405 1.02 0.006 2.04 0.138 
    3 0.405 2.28-1.552 3.285-1.23 3.285-1.23 0.654 
    1.653 0.243 2.873 0.12 3.176 0.77 0.84 
    1.23 1.91 1.23 3.22 0 4.61-2.805 5.625-5.475 
    5.92 0.429 0.37 0.81 1.096 0.81 2.21 0 
    1.595-0.015 2.877-0.015 3.27 0 0.319 0.216 
    0.694 0.825 0.576C20.565 22.092 24 17.592 
    24 12.297c0-6.627-5.373-12-12-12"/>
</svg>