<svg width="1024" height="1024" viewBox="0 0 1024 1024" fill="none" xmlns="http://www.w3.org/2000/svg">
<rect width="1024" height="1024" fill="url(#paint0_linear_608_24201)"/>
<g clip-path="url(#clip0_608_24201)">
<path d="M298.195 441.15C276.697 431.822 254.142 429.053 230.738 431.274C198.283 434.384 170.443 446.954 148.528 470.955C122.683 499.191 113.333 533.601 112.544 575.547C113.214 581.262 113.899 591.597 115.76 601.724C121.715 633.898 136.171 661.601 162.775 681.427C199.37 708.715 240.415 712.905 283.366 700.156C321.613 688.8 348.486 664.029 362.599 626.865C376.2 591.848 377.303 553.25 365.726 517.521C354.605 482.326 332.6 456.09 298.195 441.15ZM295.381 632.373C270.265 669.774 219.572 670.736 191.717 635.335C176.383 615.849 171.395 593.092 170.874 569.106C171.395 549.858 174.492 531.306 183.559 514.145C196.079 490.455 215.329 476.744 242.723 476.285C270.116 475.826 289.977 489.004 301.321 513.049C320.407 553.53 321.077 594.173 295.381 632.373ZM907.701 535.895C901.746 503.485 887.171 475.856 860.343 455.631C833.515 435.405 803.367 428.461 770.302 431.215C724.254 435.035 689.625 456.637 667.769 497.118C649.74 530.521 646.391 566.47 653.492 603.279C660.147 637.822 677 666.517 707.088 686.194C732.621 702.955 760.982 708.537 791.368 705.813C822.632 702.999 849.936 691.791 872.313 669.759C900.912 641.627 909.83 605.885 911.185 563.42C910.247 556.861 909.666 546.23 907.761 535.866L907.701 535.895ZM839.753 621.387C828.424 644.899 809.442 659.721 782.257 660.787C753.612 661.897 729.122 644.129 717.018 614.695C710.944 599.888 708.249 584.519 708.309 564.709C708.979 545.075 713.415 522.599 727.663 503.1C755.652 464.736 813.327 467.372 836.344 508.785C856.829 545.342 858.006 583.513 839.813 621.357L839.753 621.387ZM602.561 351.187C602.65 456.509 602.65 561.831 602.561 667.153C602.561 683.87 595.028 695.448 581.837 699.564C562.959 705.487 544.469 691.717 544.35 671.314C544.156 638.518 544.35 605.707 544.35 572.896V509.229C544.35 455.7 544.35 402.175 544.35 348.655C544.35 332.768 553.357 321.708 568.364 318.435C583.37 315.163 597.916 326.446 600.953 338.75C601.98 342.818 602.52 346.993 602.561 351.187ZM477.89 348.581C477.429 402.343 477.712 456.104 477.712 509.866C477.712 563.628 477.712 617.404 477.712 671.166C477.712 686.357 469.791 696.336 455.216 700.038C438.214 704.302 420.885 691.347 420.796 673.905C420.617 638.37 420.796 602.835 420.796 567.3C420.796 494.29 421.064 421.295 420.528 348.285C420.424 332.916 430.22 318.051 448.889 317.769C467.945 317.532 478.024 333.568 477.89 348.581Z" fill="white"/>
</g>
<defs>
<linearGradient id="paint0_linear_608_24201" x1="1024" y1="17.1404" x2="718.302" y2="1429.44" gradientUnits="userSpaceOnUse">
<stop stop-color="#664BD6"/>
<stop offset="0.185" stop-color="#664BD6"/>
<stop offset="0.79" stop-color="#D639A0"/>
<stop offset="1" stop-color="#D639A0"/>
</linearGradient>
<clipPath id="clip0_608_24201">
<rect width="800" height="390.886" fill="white" transform="translate(112 317)"/>
</clipPath>
</defs>
</svg>
