<svg width="1024" height="1024" viewBox="0 0 1024 1024" fill="none" xmlns="http://www.w3.org/2000/svg">
<rect width="1024" height="1024" fill="#0A097D"/>
<path fill-rule="evenodd" clip-rule="evenodd" d="M261.079 431C259.983 447.417 259.265 463.872 257.65 480.239C256.67 490.172 254.304 499.969 252.463 510.377C243.281 507.174 234.71 504.185 226.073 501.173C228.129 491.272 230.144 481.558 232.161 471.845C231.831 471.67 231.499 471.493 231.17 471.316C228.339 472.384 225.494 473.416 222.68 474.527C213.355 478.211 204.021 481.877 194.733 485.653C191.494 486.971 188.554 486.796 185.292 485.464C174.296 480.969 163.193 476.738 152.123 472.425C151.127 472.037 150.076 471.789 148.744 471.384C148.744 473.546 148.52 475.466 148.788 477.315C149.427 481.736 150.414 486.107 151.034 490.53C151.432 493.367 152.866 494.893 155.514 495.894C178.351 504.524 201.146 513.263 223.965 521.939C230.779 524.529 237.63 527.024 244.996 529.759C244.206 531.944 243.588 534.219 242.594 536.313C233.116 556.291 219.743 573.11 201.864 586.237C198.437 588.753 195.015 591.284 191.462 593.614C190.723 594.099 189.142 594.138 188.408 593.668C166.727 579.736 150.084 561.195 138.213 538.355C136.983 535.99 136.078 533.455 134.67 530.177C137.24 530.726 138.963 530.893 140.539 531.465C150.375 535.031 160.235 538.548 169.952 542.415C172.343 543.367 174.438 545.36 176.323 547.226C180.87 551.726 185.212 556.435 188.956 560.348C195.1 554.861 200.719 549.845 206.854 544.368C203.647 543.068 201.272 542.046 198.859 541.134C176.227 532.575 153.575 524.068 130.989 515.395C129.784 514.931 128.616 513.242 128.25 511.901C122.35 490.311 120.011 468.237 119.543 445.921C119.522 444.873 119.188 443.831 119 442.787C119 439.296 119 435.803 119 432.312C121.157 432.651 123.455 432.625 125.451 433.387C143.982 440.456 162.543 447.461 180.912 454.937C187.076 457.446 192.649 458.407 198.553 454.753C200.193 453.738 202.18 453.284 204.01 452.576C222.597 445.385 241.185 438.194 259.772 431.003C260.206 431 260.643 431 261.079 431Z" fill="white"/>
<path fill-rule="evenodd" clip-rule="evenodd" d="M903.749 577.151C902.598 577.151 901.447 577.151 900.296 577.151C879.131 577.154 857.966 577.159 836.801 577.162C836.364 577.162 835.882 577.28 835.503 577.133C834.892 576.896 834.351 576.482 833.78 576.145C834.347 575.797 834.878 575.251 835.489 575.133C840.211 574.232 842.729 572.299 843.181 568.403C843.394 566.556 842.946 564.482 842.269 562.714C840.41 557.852 838.378 553.048 836.16 548.341C835.707 547.382 834.151 546.37 833.093 546.358C821.749 546.212 810.402 546.219 799.057 546.334C798.011 546.343 796.46 547.114 796.024 547.977C793.38 553.207 790.809 558.49 788.571 563.904C786.379 569.213 789.625 574.325 795.266 575.124C796.049 575.235 796.759 575.863 797.501 576.249C796.79 576.55 796.078 577.109 795.365 577.112C783.037 577.164 770.709 577.153 758.382 577.128C757.801 577.126 757.221 576.872 755.782 576.533C756.954 575.776 757.443 575.2 757.977 575.153C766.232 574.434 771.502 569.768 774.819 562.512C782.9 544.835 790.988 527.162 799.023 509.464C805.749 494.647 812.521 479.851 819.025 464.935C821.573 459.092 823.421 452.944 825.655 446.96C826.009 446.008 826.716 445.187 827.261 444.306C828.056 445.077 829.149 445.704 829.605 446.641C836.866 461.577 844.05 476.55 851.244 491.52C862.861 515.692 874.492 539.859 886.075 564.049C889.309 570.799 894.413 574.704 902.011 575.141C902.692 575.181 903.353 575.579 904.021 575.81C903.929 576.257 903.839 576.704 903.749 577.151ZM800.567 536.746C811.093 536.746 821.046 536.746 831.569 536.746C826.549 524.903 821.693 513.447 816.513 501.23C811.019 513.467 805.867 524.942 800.567 536.746Z" fill="white"/>
<path fill-rule="evenodd" clip-rule="evenodd" d="M405.021 575.982C402.253 577.776 336.404 577.577 334.337 575.618C335.352 575.406 336.116 575.207 336.891 575.087C342.671 574.202 345.749 569.227 343.642 563.815C341.595 558.557 339.38 553.36 337.032 548.232C336.621 547.337 335.189 546.363 334.217 546.35C322.658 546.221 311.096 546.229 299.535 546.339C298.625 546.349 297.303 547.183 296.89 548C294.336 553.032 291.843 558.103 289.614 563.285C287.192 568.918 289.982 573.87 295.972 575.08C296.696 575.226 297.416 575.4 298.121 575.621C298.235 575.656 298.253 576.002 298.596 577.135C284.662 577.156 271.015 577.198 257.369 577.093C257.328 576.666 257.288 576.239 257.248 575.812C257.874 575.581 258.488 575.196 259.128 575.145C266.695 574.539 272.053 570.462 275.102 563.858C287.975 535.979 300.761 508.057 313.253 480.005C318.273 468.736 322.442 457.09 327.048 445.635C327.276 445.067 328.153 444.211 328.418 444.311C329.094 444.568 329.81 445.181 330.135 445.837C333.166 451.962 336.123 458.121 339.09 464.277C351.062 489.117 363.039 513.954 374.993 538.803C378.852 546.824 382.729 554.841 386.45 562.929C389.81 570.229 394.879 574.97 403.343 575.163C403.863 575.174 404.373 575.653 405.021 575.982ZM301.457 536.733C312.083 536.733 322.132 536.733 332.545 536.733C327.524 524.955 322.646 513.516 317.404 501.222C311.855 513.578 306.761 524.92 301.457 536.733Z" fill="white"/>
<path fill-rule="evenodd" clip-rule="evenodd" d="M758.056 445.316C758.056 446.6 758.056 447.66 758.056 448.721C758.053 458.978 758.077 469.234 758.004 479.489C757.997 480.503 757.378 481.513 757.044 482.525C756.679 481.635 756.101 480.773 755.982 479.852C754.826 470.966 751.649 463.304 742.668 459.811C739.005 458.386 734.963 457.593 731.032 457.281C725.727 456.858 720.362 457.175 714.634 457.175C714.563 458.477 714.445 459.618 714.445 460.76C714.435 494.149 714.546 527.534 714.355 560.921C714.313 568.227 719.695 575.532 727.243 575.15C727.83 575.119 728.443 575.606 729.044 575.854C728.995 576.131 728.946 576.409 728.897 576.686C706.793 576.686 684.687 576.686 662.583 576.686C662.52 576.405 662.458 576.124 662.395 575.843C663.251 575.597 664.095 575.186 664.963 575.13C672.337 574.642 676.93 569.81 676.931 562.438C676.936 528.396 676.938 494.354 676.942 460.313C676.942 459.448 676.942 458.582 676.942 457.211C666.769 457.657 656.586 455.388 647.066 460.376C639.347 464.419 636.256 471.292 635.419 479.542C635.31 480.611 634.966 481.655 634.731 482.711C634.356 482.64 633.982 482.57 633.607 482.499C633.607 470.202 633.607 457.906 633.607 445.87C668.799 449.855 703.91 447.207 738.95 447.756C744.43 447.842 749.935 446.392 755.428 445.652C756.159 445.554 756.893 445.464 758.056 445.316Z" fill="white"/>
<path fill-rule="evenodd" clip-rule="evenodd" d="M488.914 448.797C502.683 448.675 516.454 448.653 530.224 448.843C530.264 449.334 530.304 449.825 530.343 450.316C528.872 450.55 527.396 450.755 525.931 451.021C519.616 452.168 515.408 456.039 512.769 461.647C509.066 469.51 505.58 477.473 501.969 485.379C493.898 503.051 485.665 520.651 477.768 538.399C471.51 552.466 465.655 566.713 459.611 580.875C459.533 581.056 459.311 581.173 458.765 581.692C458.169 580.799 457.52 580.034 457.097 579.159C445.64 555.402 434.197 531.639 422.77 507.867C415.67 493.094 408.565 478.323 401.535 463.516C398.013 456.097 392.71 451.252 384.151 450.738C383.81 450.718 383.493 450.326 383.127 450.083C385.101 448.214 450.553 448.095 453.229 450.002C452.569 450.308 452.071 450.689 451.529 450.769C444.401 451.827 441.893 455.621 444.514 462.139C449.732 475.121 455.19 488.005 460.536 500.935C463.058 507.033 465.538 513.147 468.07 519.24C468.692 520.737 469.443 522.179 470.439 524.292C472.684 519.248 474.739 514.743 476.702 510.199C481.253 499.66 485.769 489.107 490.28 478.552C492.752 472.766 495.265 466.995 497.61 461.159C499.803 455.697 497.167 451.558 491.21 450.812C490.432 450.715 489.661 450.549 488.886 450.414C488.895 449.876 488.905 449.336 488.914 448.797Z" fill="white"/>
<path fill-rule="evenodd" clip-rule="evenodd" d="M543.741 450.2C547.402 448.111 608.753 448.318 611.155 450.365C609.627 450.557 608.552 450.736 607.471 450.82C600.881 451.338 596.371 455.692 596.353 462.196C596.267 495.58 596.293 528.965 596.316 562.351C596.321 570.068 601.872 575.077 608.741 575.128C609.454 575.134 610.165 575.531 610.876 575.745C610.827 576.058 610.779 576.374 610.731 576.686C588.699 576.686 566.668 576.686 544.637 576.686C544.561 576.443 544.486 576.2 544.41 575.956C545.234 575.667 546.042 575.186 546.882 575.12C553.469 574.596 558.15 570.016 558.66 563.407C558.812 561.453 558.821 559.484 558.822 557.523C558.847 526.21 558.85 494.897 558.885 463.585C558.893 456.22 554.26 451.218 546.952 450.795C546.168 450.751 545.394 450.513 543.741 450.2Z" fill="white"/>
</svg>
