<svg width="1024" height="1024" viewBox="0 0 1024 1024" fill="none" xmlns="http://www.w3.org/2000/svg">
<g clip-path="url(#clip0_294_4948)">
<path d="M1024 0H0V1024H1024V0Z" fill="#141414"/>
<path d="M881.542 566.65V473.76H845.373V457.551H936.259V473.76H900.091V566.65H881.542Z" fill="white"/>
<path d="M755.473 566.65V457.551H832.911V473.448H774.02V503.84H815.135V519.426H774.02V550.753H833.529V566.65H755.473Z" fill="white"/>
<path d="M618.112 566.65V457.551H642.225L673.912 523.79L705.443 457.551H729.556V566.65H712.09V481.241L673.757 558.857L635.27 480.773V566.65H618.112Z" fill="white"/>
<path d="M546.595 566.65V473.76H510.426V457.551H601.312V473.76H565.143V566.65H546.595Z" fill="white"/>
<path d="M475.753 566.65V457.551H494.301V566.65H475.753Z" fill="white"/>
<path d="M368.903 566.65V457.551H417.128C423.826 457.551 429.751 458.746 434.904 461.135C440.056 463.525 444.075 466.902 446.96 471.266C449.845 475.526 451.288 480.514 451.288 486.228C451.288 491.839 449.691 496.774 446.496 501.034C443.302 505.191 438.974 508.308 433.512 510.386C440.107 512.361 445.311 515.634 449.124 520.205C452.936 524.673 454.842 530.024 454.842 536.259C454.842 542.285 453.348 547.584 450.36 552.156C447.372 556.728 443.199 560.312 437.84 562.91C432.482 565.403 426.248 566.65 419.137 566.65H368.903ZM387.451 503.529H415.118C420.477 503.529 424.702 502.125 427.793 499.32C430.988 496.515 432.585 492.774 432.585 488.099C432.585 483.423 430.988 479.734 427.793 477.033C424.702 474.227 420.477 472.825 415.118 472.825H387.451V503.529ZM387.451 551.376H416.819C422.692 551.376 427.381 549.87 430.885 546.856C434.388 543.739 436.14 539.636 436.14 534.544C436.14 529.557 434.388 525.557 430.885 522.543C427.484 519.426 422.795 517.867 416.819 517.867H387.451V551.376Z" fill="white"/>
<path fill-rule="evenodd" clip-rule="evenodd" d="M87 449.257C87.0015 447.96 87.3409 446.687 87.9844 445.564C88.6278 444.441 89.5526 443.508 90.6661 442.859C91.7796 442.21 93.0427 441.867 94.3289 441.865C95.615 441.863 96.8791 442.202 97.9944 442.848L153.774 475.248C154.001 475.377 154.19 475.564 154.321 475.79C154.453 476.016 154.522 476.274 154.523 476.536V496.059C154.524 496.319 154.457 496.575 154.328 496.801C154.2 497.026 154.015 497.215 153.791 497.345C153.568 497.476 153.314 497.545 153.056 497.545C152.798 497.545 152.545 497.477 152.321 497.346L104.615 469.757V565.846L128.923 554.095C129.147 553.984 129.395 553.933 129.644 553.946C129.893 553.958 130.135 554.036 130.347 554.168C130.558 554.302 130.733 554.488 130.853 554.708C130.974 554.928 131.037 555.175 131.037 555.427V571.368C131.036 571.641 130.96 571.909 130.817 572.141C130.675 572.374 130.471 572.562 130.229 572.685L97.6569 589.365C96.5379 589.937 95.2923 590.21 94.039 590.159C92.7857 590.107 91.5664 589.732 90.4976 589.07C89.4288 588.408 88.5461 587.481 87.9338 586.377C87.3215 585.273 87 584.029 87 582.765V449.257Z" fill="white"/>
<path fill-rule="evenodd" clip-rule="evenodd" d="M303.395 451.876C303.393 450.595 303.062 449.337 302.432 448.224C301.804 447.111 300.899 446.181 299.808 445.526C298.715 444.872 297.474 444.514 296.204 444.488C294.934 444.462 293.679 444.769 292.562 445.379L261.736 462.222C261.507 462.35 261.315 462.538 261.182 462.766C261.049 462.993 260.979 463.253 260.979 463.517C260.979 463.782 261.049 464.041 261.182 464.269C261.315 464.497 261.507 464.684 261.736 464.812L277.766 474.137C277.997 474.281 278.264 474.358 278.536 474.358C278.808 474.358 279.075 474.281 279.307 474.137L285.795 469.815V567.326L269.237 558.77C269.014 558.64 268.761 558.572 268.503 558.572C268.245 558.572 267.993 558.64 267.769 558.77L255.718 565.757C255.495 565.887 255.311 566.074 255.182 566.298C255.054 566.523 254.986 566.777 254.986 567.037C254.986 567.297 255.054 567.552 255.182 567.776C255.311 568.001 255.495 568.187 255.718 568.317L292.297 589.853C293.413 590.51 294.68 590.857 295.972 590.861C297.263 590.867 298.533 590.527 299.653 589.879C300.772 589.23 301.703 588.295 302.349 587.168C302.996 586.041 303.337 584.761 303.336 583.459L303.395 451.876Z" fill="white"/>
<path fill-rule="evenodd" clip-rule="evenodd" d="M136.908 410.936C136.909 409.632 137.253 408.351 137.903 407.224C138.554 406.097 139.488 405.163 140.611 404.517C141.735 403.871 143.007 403.536 144.301 403.545C145.594 403.555 146.862 403.909 147.976 404.571L272.306 478.651C272.754 478.92 273.125 479.304 273.377 479.765C273.629 480.226 273.755 480.747 273.742 481.273C273.728 481.799 273.576 482.312 273.3 482.76C273.024 483.207 272.636 483.572 272.173 483.817L155.139 545.493L154.61 595.018L234.581 549.134L200.262 531.062C200.025 530.937 199.826 530.748 199.689 530.518C199.55 530.286 199.477 530.022 199.477 529.752C199.477 529.483 199.55 529.218 199.689 528.988C199.826 528.756 200.025 528.568 200.262 528.442L215.396 520.509C215.619 520.379 215.872 520.311 216.13 520.311C216.387 520.311 216.64 520.379 216.864 520.509L263.102 547.151C263.547 547.412 263.916 547.785 264.173 548.235C264.429 548.684 264.565 549.194 264.565 549.712C264.565 550.231 264.429 550.74 264.173 551.189C263.916 551.638 263.547 552.012 263.102 552.273L147.873 619.278C146.752 619.93 145.479 620.273 144.185 620.269C142.89 620.266 141.619 619.917 140.501 619.259C139.384 618.601 138.458 617.656 137.819 616.521C137.18 615.386 136.851 614.1 136.864 612.794L137.671 534.674L240.613 480.398L154.508 429.097V465.715C154.51 465.977 154.444 466.236 154.314 466.464C154.185 466.692 153.998 466.881 153.773 467.012C153.547 467.143 153.291 467.211 153.031 467.21C152.77 467.208 152.515 467.136 152.291 467.002L137.612 458.358C137.393 458.227 137.212 458.041 137.086 457.818C136.959 457.595 136.893 457.343 136.893 457.086L136.908 410.936Z" fill="#FFA500"/>
<path d="M137.642 498.441C137.642 498.182 137.709 497.929 137.837 497.705C137.965 497.481 138.148 497.295 138.369 497.165C138.59 497.034 138.841 496.965 139.097 496.963C139.353 496.961 139.606 497.027 139.829 497.153L154.508 505.59C154.734 505.718 154.923 505.905 155.055 506.132C155.186 506.358 155.256 506.615 155.256 506.877V538.819H137.642V498.441Z" fill="#FFA500"/>
</g>
<defs>
<clipPath id="clip0_294_4948">
<rect width="1024" height="1024" fill="white"/>
</clipPath>
</defs>
</svg>
